HIERARCHY
ROOT Hips
{
    OFFSET   0.000000   0.000000   0.000000
    CHANNELS 6 Xposition Yposition Zposition Zrotation Xrotation Yrotation
    JOINT Chest
    {
        OFFSET   0.000000   8.007230   0.000000
        CHANNELS 3 Zrotation Xrotation Yrotation
        JOINT Chest2
        {
            OFFSET   0.000000  22.077100   0.000000
            CHANNELS 3 Zrotation Xrotation Yrotation
            JOINT Neck
            {
                OFFSET   0.000000  23.254800   0.000000
                CHANNELS 3 Zrotation Xrotation Yrotation
                JOINT Head
                {
                    OFFSET   0.000010  14.370000   1.956600
                    CHANNELS 3 Zrotation Xrotation Yrotation
                    End Site
                    {
                        OFFSET   0.000000  19.566000   0.000000
                    }
                }
            }
            JOINT LeftCollar
            {
                OFFSET   3.911900  19.017000  -0.467062
                CHANNELS 3 Zrotation Xrotation Yrotation
                JOINT LeftShoulder
                {
                    OFFSET  10.383700   0.000000   0.000000
                    CHANNELS 3 Zrotation Xrotation Yrotation
                    JOINT LeftElbow
                    {
                        OFFSET  26.662100   0.001193   0.000835
                        CHANNELS 3 Zrotation Xrotation Yrotation
                        JOINT LeftWrist
                        {
                            OFFSET  28.869000  -0.000058  -0.000075
                            CHANNELS 3 Zrotation Xrotation Yrotation
                            JOINT LeftFinger0
                            {
                                OFFSET   2.044660  -2.323460   3.252850
                                CHANNELS 3 Zrotation Xrotation Yrotation
                                JOINT LeftFinger01
                                {
                                    OFFSET   3.088130   0.000000   0.000000
                                    CHANNELS 3 Zrotation Xrotation Yrotation
                                    JOINT LeftFinger02
                                    {
                                        OFFSET   2.639450   0.000000   0.000000
                                        CHANNELS 3 Zrotation Xrotation Yrotation
                                        End Site
                                        {
                                            OFFSET   2.582190   0.000000   0.000000
                                        }
                                    }
                                }
                            }
                            JOINT LeftFinger1
                            {
                                OFFSET   8.364480   0.000000   3.252850
                                CHANNELS 3 Zrotation Xrotation Yrotation
                                JOINT LeftFinger11
                                {
                                    OFFSET   4.646920   0.000000   0.000000
                                    CHANNELS 3 Zrotation Xrotation Yrotation
                                    JOINT LeftFinger12
                                    {
                                        OFFSET   2.323460   0.000000   0.000000
                                        CHANNELS 3 Zrotation Xrotation Yrotation
                                        End Site
                                        {
                                            OFFSET   2.273050   0.000000   0.000000
                                        }
                                    }
                                }
                            }
                            JOINT LeftFinger2
                            {
                                OFFSET   8.364490   0.000016   1.078090
                                CHANNELS 3 Zrotation Xrotation Yrotation
                                JOINT LeftFinger21
                                {
                                    OFFSET   5.111620   0.000000   0.000000
                                    CHANNELS 3 Zrotation Xrotation Yrotation
                                    JOINT LeftFinger22
                                    {
                                        OFFSET   2.788150   0.000012   0.000000
                                        CHANNELS 3 Zrotation Xrotation Yrotation
                                        End Site
                                        {
                                            OFFSET   2.727660   0.000000   0.000000
                                        }
                                    }
                                }
                            }
                            JOINT LeftFinger3
                            {
                                OFFSET   7.899780   0.000014  -1.078090
                                CHANNELS 3 Zrotation Xrotation Yrotation
                                JOINT LeftFinger31
                                {
                                    OFFSET   4.646930   0.000000   0.000000
                                    CHANNELS 3 Zrotation Xrotation Yrotation
                                    JOINT LeftFinger32
                                    {
                                        OFFSET   2.323470   0.000000   0.000000
                                        CHANNELS 3 Zrotation Xrotation Yrotation
                                        End Site
                                        {
                                            OFFSET   2.273050   0.000000   0.000000
                                        }
                                    }
                                }
                            }
                            JOINT LeftFinger4
                            {
                                OFFSET   7.435090   0.000000  -3.252850
                                CHANNELS 3 Zrotation Xrotation Yrotation
                                JOINT LeftFinger41
                                {
                                    OFFSET   3.717550   0.000000   0.000000
                                    CHANNELS 3 Zrotation Xrotation Yrotation
                                    JOINT LeftFinger42
                                    {
                                        OFFSET   1.858770   0.000000   0.000000
                                        CHANNELS 3 Zrotation Xrotation Yrotation
                                        End Site
                                        {
                                            OFFSET   1.818440   0.000000   0.000000
                                        }
                                    }
                                }
                            }
                        }
                    }
                }
            }
            JOINT RightCollar
            {
                OFFSET  -3.911900  19.017000  -0.467063
                CHANNELS 3 Zrotation Xrotation Yrotation
                JOINT RightShoulder
                {
                    OFFSET -10.383700   0.000023   0.000000
                    CHANNELS 3 Zrotation Xrotation Yrotation
                    JOINT RightElbow
                    {
                        OFFSET -26.662100   0.001246   0.001011
                        CHANNELS 3 Zrotation Xrotation Yrotation
                        JOINT RightWrist
                        {
                            OFFSET -28.869000  -0.000026  -0.000078
                            CHANNELS 3 Zrotation Xrotation Yrotation
                            JOINT RightFinger0
                            {
                                OFFSET  -2.044660  -2.323490   3.252850
                                CHANNELS 3 Zrotation Xrotation Yrotation
                                JOINT RightFinger01
                                {
                                    OFFSET  -3.088130   0.000000   0.000000
                                    CHANNELS 3 Zrotation Xrotation Yrotation
                                    JOINT RightFinger02
                                    {
                                        OFFSET  -2.639460   0.000000   0.000000
                                        CHANNELS 3 Zrotation Xrotation Yrotation
                                        End Site
                                        {
                                            OFFSET  -2.582190   0.000000   0.000000
                                        }
                                    }
                                }
                            }
                            JOINT RightFinger1
                            {
                                OFFSET  -8.364480   0.000000   3.252850
                                CHANNELS 3 Zrotation Xrotation Yrotation
                                JOINT RightFinger11
                                {
                                    OFFSET  -4.646920   0.000000   0.000000
                                    CHANNELS 3 Zrotation Xrotation Yrotation
                                    JOINT RightFinger12
                                    {
                                        OFFSET  -2.323470   0.000000   0.000000
                                        CHANNELS 3 Zrotation Xrotation Yrotation
                                        End Site
                                        {
                                            OFFSET  -2.273050   0.000000   0.000000
                                        }
                                    }
                                }
                            }
                            JOINT RightFinger2
                            {
                                OFFSET  -8.364480   0.000000   1.078090
                                CHANNELS 3 Zrotation Xrotation Yrotation
                                JOINT RightFinger21
                                {
                                    OFFSET  -5.111620   0.000000   0.000000
                                    CHANNELS 3 Zrotation Xrotation Yrotation
                                    JOINT RightFinger22
                                    {
                                        OFFSET  -2.788160   0.000000   0.000000
                                        CHANNELS 3 Zrotation Xrotation Yrotation
                                        End Site
                                        {
                                            OFFSET  -2.727660   0.000000   0.000000
                                        }
                                    }
                                }
                            }
                            JOINT RightFinger3
                            {
                                OFFSET  -7.899780   0.000000  -1.078090
                                CHANNELS 3 Zrotation Xrotation Yrotation
                                JOINT RightFinger31
                                {
                                    OFFSET  -4.646930   0.000000   0.000000
                                    CHANNELS 3 Zrotation Xrotation Yrotation
                                    JOINT RightFinger32
                                    {
                                        OFFSET  -2.323470   0.000000   0.000000
                                        CHANNELS 3 Zrotation Xrotation Yrotation
                                        End Site
                                        {
                                            OFFSET  -2.273050   0.000000   0.000000
                                        }
                                    }
                                }
                            }
                            JOINT RightFinger4
                            {
                                OFFSET  -7.435090   0.000000  -3.252850
                                CHANNELS 3 Zrotation Xrotation Yrotation
                                JOINT RightFinger41
                                {
                                    OFFSET  -3.717550   0.000000   0.000000
                                    CHANNELS 3 Zrotation Xrotation Yrotation
                                    JOINT RightFinger42
                                    {
                                        OFFSET  -1.858760   0.000000   0.000000
                                        CHANNELS 3 Zrotation Xrotation Yrotation
                                        End Site
                                        {
                                            OFFSET  -1.818440   0.000000   0.000000
                                        }
                                    }
                                }
                            }
                        }
                    }
                }
            }
        }
    }
    JOINT LeftHip
    {
        OFFSET   9.783010   0.000000   0.000000
        CHANNELS 3 Zrotation Xrotation Yrotation
        JOINT LeftKnee
        {
            OFFSET   0.000073 -41.789100   0.001749
            CHANNELS 3 Zrotation Xrotation Yrotation
            JOINT LeftAnkle
            {
                OFFSET   0.000111 -41.133200  -0.000179
                CHANNELS 3 Zrotation Xrotation Yrotation
                JOINT LeftToe
                {
                    OFFSET   0.000000  -6.358960  14.674500
                    CHANNELS 3 Zrotation Xrotation Yrotation
                    End Site
                    {
                        OFFSET   0.000000   0.000000   3.913200
                    }
                }
            }
        }
    }
    JOINT RightHip
    {
        OFFSET  -9.783010   0.000000   0.000000
        CHANNELS 3 Zrotation Xrotation Yrotation
        JOINT RightKnee
        {
            OFFSET   0.000424 -41.789200   0.005205
            CHANNELS 3 Zrotation Xrotation Yrotation
            JOINT RightAnkle
            {
                OFFSET   0.000000 -41.133200  -0.000155
                CHANNELS 3 Zrotation Xrotation Yrotation
                JOINT RightToe
                {
                    OFFSET   0.000000  -6.358960  14.674500
                    CHANNELS 3 Zrotation Xrotation Yrotation
                    End Site
                    {
                        OFFSET   0.000000   0.000000   3.913200
                    }
                }
            }
        }
    }
}
MOTION
Frames: 5
Frame Time:   0.016667
  0.777412  89.333500   2.767570  -2.467860 -18.033500   5.097450  -2.409570  11.164400   4.797100  -5.947110  22.070000  10.375800   7.327400  -0.008098   0.002897  12.033800  -0.015304 -14.677100  -3.479060  -7.310030  -2.980420 -64.271100  23.875500 -15.155000   1.859130   3.508140 -19.124800  15.058400  -4.589010   1.337330  42.133600  35.346900 -49.731300 -30.651000  -0.002889   0.006142 -10.325500  -0.002595  -0.001511 -34.463000   7.429140 -10.619900 -28.758800   0.001485  -0.004169 -20.131100   0.002266   0.001113 -29.806700  -0.187548   0.323306 -44.709800   0.003509  -0.000614 -29.776700   0.002996   0.012186 -28.870400  -0.181969   0.326511 -42.951900   0.004196   0.002867 -28.605900   0.003760   0.001588 -36.514800  -0.209379   0.277400 -54.772000   0.007078  -0.004940 -36.478200   0.001086  -0.000067   2.332200  -8.952740   7.253540   6.043120 -22.403400  68.251000  -7.456650   2.300440  -0.000019   3.737100 -16.860600   7.697420 -37.186300  39.461500  57.793300  43.013700   0.001974  -0.001767  19.886400   0.001647  -0.000665  88.992400   4.998270   0.087600  96.718300  -0.002470   0.000414  72.538700  -0.000124   0.008326  89.001800  -0.009379  -0.008270 103.024000  -0.000298   0.004631  77.267900   0.001224   0.001217  88.995900  -4.997930  -0.091127 107.488000  -0.001896   0.000112  80.000000   0.003011   0.004581  88.984600  -9.999030  -0.176321 110.000000  -0.004188   0.000675  80.000000   0.004139   0.001557   3.385740  19.942400   1.525120   0.008415   0.070523   4.178580  -1.611970  -3.099020  -5.896870  -0.000000   0.000000  -0.000000   5.973050  16.378800  -5.807410  -1.234050   9.067840 -19.526900  -0.013114  -7.706670   2.589320  -0.000000   0.000000   0.000000
  0.874402  89.329200   2.827830  -2.202940 -18.078900   5.555770  -2.507280  11.155900   4.976990  -6.190150  22.030400  10.765900   7.440220  -0.019750   0.004389  12.223200  -0.037994 -15.063400  -3.521010  -7.283110  -3.223400 -64.252400  23.444000 -15.327900   1.732550   3.818220 -18.558600  15.277500  -4.122910   1.656050  41.900700  35.150300 -49.128300 -30.733300  -0.002888   0.006142 -10.366600  -0.002600  -0.001508 -34.318100   7.521420 -10.850600 -28.660900   0.001484  -0.004168 -20.062600   0.002253   0.001162 -29.634900  -0.199182   0.349420 -44.452300   0.003507  -0.000444 -29.605300   0.002995   0.012179 -28.753300  -0.193353   0.352392 -42.799400   0.004201   0.003361 -28.504400   0.003760   0.001588 -36.198400  -0.212581   0.289591 -54.297600   0.007082   0.001199 -36.162200   0.000844  -0.000234   2.454180  -9.009250   7.007360   5.197820 -22.303800  67.218200  -7.393300   2.631870  -0.000072   3.466220 -17.078800   7.703190 -36.976400  39.135600  57.338200  43.016800   0.002062  -0.001701  19.904800   0.001402  -0.000663  88.992300   4.998230   0.087605  96.664900  -0.002700   0.000239  72.498600  -0.000100   0.007934  89.001700  -0.009462  -0.008418 102.972000  -0.000400   0.005131  77.229000   0.001418   0.001479  88.995900  -4.997920  -0.091255 107.408000  -0.002033   0.000214  80.000000   0.003347   0.004464  88.984600  -9.999000  -0.176319 110.000000  -0.004226   0.000752  80.000000   0.004121   0.001550   3.059430  19.988400   1.498540   0.145789   0.085752   4.022030  -1.708740  -3.053340  -6.027430  -0.000000   0.000000   0.000000   5.716940  16.562300  -6.134010  -1.146440   9.000740 -19.552800   0.006345  -7.789310   2.479970   0.000000   0.000000   0.000000
  0.969796  89.327400   2.856540  -2.064710 -18.143100   5.982070  -2.513200  11.154600   5.098870  -6.236220  22.016600  11.025100   7.421100  -0.038886   0.005940  12.190100  -0.075090 -15.287900  -3.673020  -7.193400  -3.491760 -64.300600  22.899600 -15.353200   1.735730   4.256590 -18.072300  15.735600  -4.286180   1.888590  41.600400  34.833600 -49.035600 -30.801300  -0.002895   0.006150 -10.400600  -0.002594  -0.001504 -34.398000   7.868150 -11.289200 -28.791400   0.001481  -0.004164 -20.153900   0.002261   0.001216 -29.717200  -0.142367   0.249620 -44.575300   0.003509  -0.000445 -29.687200   0.002993   0.012171 -28.795700  -0.138263   0.251645 -43.026000   0.004199   0.003360 -28.655300   0.003762   0.001591 -36.207300  -0.132712   0.182000 -54.310300   0.007082   0.001199 -36.170700   0.000841  -0.000234   2.498170  -9.006800   6.818210   4.943320 -22.391800  66.651400  -7.471760   2.900620  -0.000188   3.336740 -17.244300   7.655030 -36.724900  38.866300  56.916700  43.131900   0.002158  -0.001907  20.038400   0.001142  -0.000699  88.992300   4.998180   0.087602  96.705900  -0.002949   0.000052  72.529400  -0.000088   0.007524  89.001500  -0.009543  -0.008577 103.002000  -0.000504   0.005602  77.251400   0.001623   0.001743  88.995900  -4.997930  -0.091375 107.415000  -0.002189   0.000281  80.000000   0.003702   0.004337  88.984600  -9.998980  -0.176325 110.000000  -0.004269   0.000818  80.000000   0.004098   0.001535   2.833680  20.041200   1.421660   0.325496   0.083754   3.814520  -1.727670  -2.995730  -6.026580   0.000000   0.000000  -0.000000   5.573090  16.768800  -6.243060  -1.026570   8.907220 -19.724100   0.011277  -7.841420   2.330460   0.000000   0.000000   0.000000
  1.056830  89.326900   2.872220  -1.954580 -18.217000   6.344400  -2.490740  11.158300   5.177980  -6.197240  22.024100  11.176100   7.362070  -0.061493   0.007915  12.095200  -0.118839 -15.374600  -3.848330  -7.126040  -3.657790 -64.402600  22.347000 -15.316600   1.789150   4.664540 -17.685200  16.094000  -4.590900   2.018300  41.520000  34.595000 -49.163400 -30.863600  -0.002903   0.006159 -10.431800  -0.002588  -0.001501 -34.584200   8.133570 -11.594900 -28.975700   0.001477  -0.004161 -20.283000   0.002269   0.001270 -29.861600  -0.060530   0.106041 -44.791600   0.003511  -0.000447 -29.831200   0.002992   0.012162 -28.871600  -0.058872   0.106806 -43.343200   0.004197   0.003359 -28.866600   0.003764   0.001594 -36.265500  -0.052842   0.074411 -54.399400   0.007083   0.001198 -36.230000   0.000840  -0.000234   2.509690  -8.988970   6.723310   4.888710 -22.536700  66.274000  -7.570400   3.114560  -0.000270   3.232650 -17.335000   7.565450 -36.566700  38.715100  56.671400  43.294500   0.002259  -0.002200  20.207900   0.000876  -0.000782  88.992300   4.998130   0.087600  96.747000  -0.003218  -0.000147  72.560200  -0.000086   0.007104  89.001400  -0.009624  -0.008736 103.032000  -0.000629   0.006052  77.273800   0.001829   0.002022  88.995900  -4.997950  -0.091491 107.422000  -0.002358   0.000346  80.000000   0.004051   0.004209  88.984600  -9.998970  -0.176330 110.000000  -0.004315   0.000881  80.000000   0.004074   0.001520   2.672990  20.092100   1.320090   0.498968   0.081754   3.606500  -1.730950  -2.941030  -6.022580   0.000000   0.000000  -0.000000   5.536960  16.990000  -6.265050  -0.911796   8.790430 -19.952200   0.002515  -7.872550   2.167160  -0.000000   0.000000  -0.000000
  1.122950  89.326000   2.893760  -1.901890 -18.322900   6.635290  -2.443370  11.175700   5.208730  -6.105470  22.063900  11.223800   7.249320  -0.081361   0.010448  11.910000  -0.157315 -15.260600  -3.913070  -7.149610  -3.632400 -64.656400  21.950100 -15.113200   1.845290   4.835420 -17.466300  16.150900  -4.992180   2.054240  41.471900  34.467600 -49.442500 -30.919900  -0.002898   0.006156 -10.460000  -0.002589  -0.001500 -34.701400   8.067490 -11.467900 -29.053600   0.001476  -0.004170 -20.337500   0.002267   0.001319 -30.028400  -0.029578   0.052104 -45.041900   0.003508  -0.000448 -29.997900   0.002993   0.012152 -28.952100  -0.028723   0.052765 -43.457700   0.004195   0.003359 -28.942800   0.003766   0.001595 -36.451400  -0.098669   0.134910 -54.679100   0.007087   0.001198 -36.416300   0.000841  -0.000234   2.467000  -8.940540   6.731280   4.834510 -22.699300  66.008500  -7.590480   3.206480  -0.000223   3.119180 -17.251600   7.465770 -36.657900  38.954600  56.970900  43.367400   0.002363  -0.002344  20.278000   0.000611  -0.000901  88.992200   4.998080   0.087602  96.657800  -0.003505  -0.000356  72.493300  -0.000094   0.006681  89.001200  -0.009711  -0.008881 102.943000  -0.000793   0.006483  77.207000   0.002025   0.002329  88.995800  -4.997950  -0.091608 107.340000  -0.002537   0.000429  80.000000   0.004376   0.004099  88.984600  -9.998950  -0.176324 110.000000  -0.004363   0.000942  80.000000   0.004050   0.001513   2.600440  20.152600   1.176980   0.607609   0.112532   3.442770  -1.745900  -2.896450  -5.969280  -0.000000   0.000000   0.000000   5.573150  17.249100  -6.230890  -0.836604   8.643270 -20.196100  -0.026515  -7.891400   2.004910  -0.000000   0.000000  -0.000000
